<svg width="327" height="327" viewBox="0 0 327 327" fill="none" xmlns="http://www.w3.org/2000/svg">
<path fill-rule="evenodd" clip-rule="evenodd" d="M327 322.697V327H0V322.697H60.2368V305.487H17.2105V262.461H0V258.158H17.2105V172.105H107.566V215.132H150.592V305.487H64.5395V322.697H258.158V305.487H172.105V215.132H215.132V172.105H305.487V258.158H322.697V64.5395H305.487V150.592H215.132V107.566H172.105V17.2105H258.158V0H262.461V17.2105H305.487V60.2368H322.697V0H327V322.697ZM322.697 322.697V262.461H305.487V305.487H262.461V322.697H322.697ZM176.408 64.5395V103.263H215.132V64.5395H176.408ZM219.434 103.263H262.461V146.289H301.184V64.5395H258.158V21.5132H176.408V60.2368H219.434V103.263ZM219.434 107.566V146.289H258.158V107.566H219.434ZM262.461 60.2368H301.184V21.5132H262.461V60.2368ZM146.289 258.158V219.434H107.566V258.158H146.289ZM103.263 219.434H60.2368V176.408H21.5132V258.158H64.5395V301.184H146.289V262.461H103.263V219.434ZM103.263 215.132V176.408H64.5395V215.132H103.263ZM60.2368 262.461H21.5132V301.184H60.2368V262.461ZM176.408 262.461V301.184H258.158V258.158H301.184V176.408H262.461V219.434H219.434V262.461H176.408ZM215.132 219.434H176.408V258.158H215.132V219.434ZM219.434 215.132H258.158V176.408H219.434V215.132ZM262.461 301.184V262.461H301.184V301.184H262.461ZM64.5395 0H60.2368V17.2105H17.2105V60.2368H0V64.5395H17.2105V150.592H107.566V107.566H150.592V17.2105H64.5395V0ZM107.566 103.263H146.289V64.5395H107.566V103.263ZM146.289 60.2368H103.263V103.263H60.2368V146.289H21.5132V64.5395H64.5395V21.5132H146.289V60.2368ZM64.5395 107.566H103.263V146.289H64.5395V107.566ZM60.2368 21.5132H21.5132V60.2368H60.2368V21.5132Z" fill="#133C5F"/>
</svg>
