<svg width="38" height="38" viewBox="0 0 38 38" fill="none" xmlns="http://www.w3.org/2000/svg">
<path d="M0.25 4.41667C0.25 2.11548 2.11548 0.25 4.41667 0.25H33.5833C35.8845 0.25 37.75 2.11548 37.75 4.41667V33.5833C37.75 35.8845 35.8845 37.75 33.5833 37.75H4.41667C2.11548 37.75 0.25 35.8845 0.25 33.5833V4.41667ZM33.5833 4.41667H4.41667V33.5833H33.5833V4.41667ZM19 8.58333C20.1506 8.58333 21.0833 9.51607 21.0833 10.6667V27.3333C21.0833 28.4839 20.1506 29.4167 19 29.4167C17.8494 29.4167 16.9167 28.4839 16.9167 27.3333V10.6667C16.9167 9.51607 17.8494 8.58333 19 8.58333ZM27.3333 12.75C28.4839 12.75 29.4167 13.6827 29.4167 14.8333V27.3333C29.4167 28.4839 28.4839 29.4167 27.3333 29.4167C26.1827 29.4167 25.25 28.4839 25.25 27.3333V14.8333C25.25 13.6827 26.1827 12.75 27.3333 12.75ZM10.6667 16.9167C11.8173 16.9167 12.75 17.8494 12.75 19V27.3333C12.75 28.4839 11.8173 29.4167 10.6667 29.4167C9.51607 29.4167 8.58333 28.4839 8.58333 27.3333V19C8.58333 17.8494 9.51607 16.9167 10.6667 16.9167Z" fill="#2CA2CA"/>
</svg>
