<svg width="42" height="42" viewBox="0 0 42 42" fill="none" xmlns="http://www.w3.org/2000/svg">
<path d="M32.4623 0.448063C33.1047 0.820818 33.5 1.50731 33.5 2.24996V10.5833C35.9682 10.5833 38.188 11.659 39.7109 13.3606C41.0292 14.8335 41.8333 16.7836 41.8333 18.9166C41.8333 21.0496 41.0292 22.9998 39.7109 24.4727C38.188 26.1742 35.9682 27.25 33.5 27.25V35.5833C33.5 36.3259 33.1047 37.0124 32.4623 37.3852C31.82 37.7579 31.0278 37.7606 30.383 37.3921L16.8333 29.6494V39.75C16.8333 40.9006 15.9006 41.8333 14.75 41.8333H6.41666C5.26606 41.8333 4.33332 40.9006 4.33332 39.75V29.3333C2.03214 29.3333 0.166656 27.4678 0.166656 25.1666V12.6666C0.166656 10.3654 2.03214 8.49996 4.33332 8.49996H16.2801L30.383 0.441119C31.0278 0.0726635 31.82 0.0753092 32.4623 0.448063ZM16.8333 25.1666C17.1959 25.1666 17.5522 25.2612 17.8669 25.4411L29.3333 31.9933V5.83992L17.8669 12.3921C17.5522 12.572 17.1959 12.6666 16.8333 12.6666H4.33332V25.1666H16.8333ZM8.49999 29.3333V37.6666H12.6667V29.3333H8.49999ZM33.5 23.0833C34.7338 23.0833 35.8403 22.5496 36.6062 21.6939C37.2672 20.9553 37.6667 19.9851 37.6667 18.9166C37.6667 17.8481 37.2672 16.8779 36.6062 16.1394C35.8403 15.2836 34.7338 14.75 33.5 14.75V23.0833Z" fill="#2CA2CA"/>
</svg>
