<svg width="34" height="42" viewBox="0 0 34 42" fill="none" xmlns="http://www.w3.org/2000/svg">
<path d="M0.333313 4.33329C0.333313 2.03211 2.19879 0.166626 4.49998 0.166626H21.1666C21.7192 0.166626 22.2491 0.386119 22.6398 0.77682L33.0564 11.1935C33.4471 11.5842 33.6666 12.1141 33.6666 12.6666V37.6666C33.6666 39.9678 31.8012 41.8333 29.5 41.8333H4.49998C2.1988 41.8333 0.333313 39.9678 0.333313 37.6666V4.33329ZM28.637 12.6666L21.1666 5.19624V12.6666H28.637ZM17 4.33329L4.49998 4.33329V37.6666H29.5V16.8333H19.0833C17.9327 16.8333 17 15.9006 17 14.75V4.33329ZM8.66665 23.0833C8.66665 21.9327 9.59939 21 10.75 21H23.25C24.4006 21 25.3333 21.9327 25.3333 23.0833C25.3333 24.2339 24.4006 25.1666 23.25 25.1666H10.75C9.59939 25.1666 8.66665 24.2339 8.66665 23.0833ZM8.66665 31.4166C8.66665 30.266 9.59939 29.3333 10.75 29.3333H23.25C24.4006 29.3333 25.3333 30.266 25.3333 31.4166C25.3333 32.5672 24.4006 33.5 23.25 33.5H10.75C9.59939 33.5 8.66665 32.5672 8.66665 31.4166Z" fill="#2CA2CA"/>
</svg>
