<svg width="38" height="42" viewBox="0 0 38 42" fill="none" xmlns="http://www.w3.org/2000/svg">
<path d="M4.41667 8.49996C4.41667 8.55315 4.43796 8.85324 5.02518 9.37387C5.60997 9.89234 6.57503 10.4544 7.94639 10.9687C10.6737 11.9914 14.5813 12.6666 19 12.6666C23.4187 12.6666 27.3263 11.9914 30.0536 10.9687C31.425 10.4544 32.39 9.89234 32.9748 9.37387C33.562 8.85324 33.5833 8.55315 33.5833 8.49996C33.5833 8.44676 33.562 8.14668 32.9748 7.62605C32.39 7.10758 31.425 6.54549 30.0536 6.03123C27.3263 5.00847 23.4187 4.33329 19 4.33329C14.5813 4.33329 10.6737 5.00847 7.94639 6.03123C6.57503 6.54549 5.60997 7.10758 5.02518 7.62605C4.43796 8.14668 4.41667 8.44676 4.41667 8.49996ZM0.25 8.49996C0.25 6.82726 1.16144 5.48316 2.26099 4.5083C3.36295 3.5313 4.83867 2.74662 6.48338 2.12986C9.78818 0.890556 14.2139 0.166626 19 0.166626C23.7861 0.166626 28.2118 0.890556 31.5166 2.12986C33.1613 2.74662 34.637 3.5313 35.739 4.5083C36.8386 5.48316 37.75 6.82726 37.75 8.49996V16.8333V25.1666V33.5C37.75 35.1727 36.8386 36.5168 35.739 37.4916C34.637 38.4686 33.1613 39.2533 31.5166 39.8701C28.2118 41.1094 23.7861 41.8333 19 41.8333C14.2139 41.8333 9.78818 41.1094 6.48338 39.8701C4.83867 39.2533 3.36295 38.4686 2.26099 37.4916C1.16144 36.5168 0.25 35.1727 0.25 33.5V25.1666V16.8333V8.49996ZM4.41667 16.8333C4.41667 16.8865 4.43796 17.1866 5.02518 17.7072C5.60997 18.2257 6.57503 18.7878 7.94639 19.302C10.6737 20.3248 14.5813 21 19 21C23.4187 21 27.3263 20.3248 30.0536 19.302C31.425 18.7878 32.39 18.2257 32.9748 17.7072C33.562 17.1866 33.5833 16.8865 33.5833 16.8333V13.9504C32.9394 14.2912 32.2445 14.5971 31.5166 14.8701C28.2118 16.1094 23.7861 16.8333 19 16.8333C14.2139 16.8333 9.78818 16.1094 6.48338 14.8701C5.75546 14.5971 5.06063 14.2912 4.41667 13.9504V16.8333ZM4.41667 22.2837V25.1666C4.41667 25.2198 4.43796 25.5199 5.02518 26.0405C5.60997 26.559 6.57503 27.1211 7.94639 27.6354C10.6737 28.6581 14.5813 29.3333 19 29.3333C23.4187 29.3333 27.3263 28.6581 30.0536 27.6354C31.425 27.1211 32.39 26.559 32.9748 26.0405C33.562 25.5199 33.5833 25.2198 33.5833 25.1666V22.2837C32.9394 22.6246 32.2445 22.9304 31.5166 23.2034C28.2118 24.4427 23.7861 25.1666 19 25.1666C14.2139 25.1666 9.78818 24.4427 6.48338 23.2034C5.75545 22.9304 5.06063 22.6246 4.41667 22.2837ZM4.41667 30.617V33.5C4.41667 33.5532 4.43796 33.8532 5.02518 34.3739C5.60997 34.8923 6.57503 35.4544 7.94639 35.9687C10.6737 36.9914 14.5813 37.6666 19 37.6666C23.4187 37.6666 27.3263 36.9914 30.0536 35.9687C31.425 35.4544 32.39 34.8923 32.9748 34.3739C33.562 33.8532 33.5833 33.5532 33.5833 33.5V30.617C32.9394 30.9579 32.2445 31.2638 31.5166 31.5367C28.2118 32.776 23.7861 33.5 19 33.5C14.2139 33.5 9.78818 32.776 6.48338 31.5367C5.75545 31.2638 5.06063 30.9579 4.41667 30.617Z" fill="#2CA2CA"/>
</svg>
