<svg width="42" height="30" viewBox="0 0 42 30" fill="none" xmlns="http://www.w3.org/2000/svg">
<path d="M27.25 15C27.25 18.4517 24.4518 21.25 21 21.25C17.5482 21.25 14.75 18.4517 14.75 15C14.75 11.5482 17.5482 8.74996 21 8.74996C24.4518 8.74996 27.25 11.5482 27.25 15Z" fill="#2CA2CA"/>
<path d="M41.6134 14.0683C37.1171 5.07568 29.1315 0.416626 21 0.416626C12.8685 0.416626 4.8829 5.07568 0.386611 14.0683C0.0933535 14.6548 0.0933535 15.3451 0.386611 15.9317C4.8829 24.9242 12.8685 29.5833 21 29.5833C29.1315 29.5833 37.1171 24.9242 41.6134 15.9317C41.9067 15.3451 41.9067 14.6548 41.6134 14.0683ZM21 25.4166C14.815 25.4166 8.49595 22.04 4.60345 15C8.49595 7.95992 14.815 4.58329 21 4.58329C27.185 4.58329 33.5041 7.95992 37.3966 15C33.5041 22.04 27.185 25.4166 21 25.4166Z" fill="#2CA2CA"/>
</svg>
