<svg width="40" height="40" viewBox="0 0 40 40" fill="none" xmlns="http://www.w3.org/2000/svg">
<path d="M30.8898 0.77682C30.0762 -0.0367721 28.7571 -0.0367721 27.9435 0.77682L23.1667 5.55368L20.4731 2.86015C19.6595 2.04656 18.3405 2.04656 17.5269 2.86015L5.02686 15.3602C4.21327 16.1737 4.21327 17.4928 5.02686 18.3064C5.84045 19.12 7.15955 19.12 7.97314 18.3064L19 7.27957L20.2204 8.49996L15.4435 13.2768L0.860194 27.8602C0.469493 28.2509 0.25 28.7808 0.25 29.3333V37.6666C0.25 38.8172 1.18274 39.75 2.33333 39.75H10.6667C11.2192 39.75 11.7491 39.5305 12.1398 39.1398L26.7231 24.5564L39.2231 12.0564C40.0367 11.2428 40.0367 9.92375 39.2231 9.11015L30.8898 0.77682ZM24.6398 9.9731L29.4167 5.19624L34.8037 10.5833L25.25 20.137L19.8629 14.75L24.6398 9.9731ZM4.41667 30.1962L16.9167 17.6962L22.3037 23.0833L9.80372 35.5833H4.41667V30.1962Z" fill="#2CA2CA"/>
</svg>
