<svg width="26" height="29" viewBox="0 0 26 29" fill="none" xmlns="http://www.w3.org/2000/svg">
<path fill-rule="evenodd" clip-rule="evenodd" d="M10.6948 5.71488C10.6225 5.25398 10.568 4.79832 10.5328 4.34261C10.4798 3.65904 10.5126 2.97024 10.4938 2.28667C10.4856 1.99667 10.4532 1.24061 10.4663 1.13186C10.5844 0.184177 11.2965 0.0391594 11.5048 0.0132665C11.6056 -0.0022692 12.6402 -0.126499 12.8635 1.106C13.1373 2.61296 13.2251 4.13027 13.1282 5.61652C13.3543 6.88009 13.741 8.13845 14.2516 9.27774C16.2833 13.809 20.1549 14.2492 24.3496 14.2077C24.9947 14.1974 25.5303 14.7411 25.5641 15.4299C25.5978 16.1238 25.1176 16.7245 24.4754 16.7867C22.1308 17.0301 17.9708 19.0497 16.5326 21.1522C16.2317 21.5924 16.0567 22.654 15.8253 23.6949C15.5022 25.1397 15.118 26.569 14.6874 27.1697C14.6228 27.2629 13.8374 28.2158 13.6031 28.3556C13.0399 28.6871 12.5891 28.4954 12.3331 28.3194C12.0771 28.1433 11.7873 27.7963 11.6716 27.2215C11.5506 26.6208 11.6528 25.3883 11.634 25.1242C11.5656 24.1661 11.3872 22.2863 11.0232 20.6706C10.8269 19.8006 10.6177 18.9979 10.2715 18.5992C8.98995 17.1233 6.94084 17.3408 5.21525 17.5842C5.01709 17.6101 4.81893 17.6412 4.62126 17.6671C3.91877 17.8897 3.17288 18.0554 2.38458 18.1538C1.19417 18.304 0.99843 17.1285 0.987823 17.0508C0.965644 16.8799 0.883189 15.9995 1.78046 15.6474C1.87833 15.6112 2.60059 15.4402 2.87879 15.3729C3.26643 15.2797 3.6584 15.2072 4.05183 15.1399C8.11581 13.7831 10.3231 9.97166 10.6948 5.71488ZM12.0896 10.4222C13.6238 13.8297 15.9521 15.4765 18.7119 16.2222H18.7114C16.9882 17.1906 15.4208 18.4024 14.59 19.6194C14.2747 20.0803 13.9854 21.0072 13.7246 22.0481C13.5833 21.0797 13.3924 20.0492 13.1402 19.1688C12.8534 18.1642 12.4671 17.3305 12.0361 16.8333C11.2039 15.8753 10.1596 15.3419 9.0367 15.0778C10.3809 13.7987 11.4002 12.2037 12.0896 10.4222Z" fill="#F69825"/>
</svg>
